
<svg version="1.1" xmlns="http://www.w3.org/2000/svg" xmlns:xlink="http://www.w3.org/1999/xlink" x="0px" y="0px"
	 viewBox="0 0 601 764" style="enable-background:new 0 0 601 764;" xml:space="preserve">
<style type="text/css">
	.st0{display:none;}
	.st1{display:inline;fill:none;stroke:#000000;stroke-width:4;stroke-miterlimit:10;}
	.st2{display:inline;fill:none;stroke:#231F20;stroke-width:4;stroke-miterlimit:10;}
	.st3{display:inline;fill:none;stroke:#231F20;stroke-width:2;stroke-miterlimit:10;}
	.st4{fill:none;stroke:#231F20;stroke-width:5;stroke-miterlimit:2;}


	.st0{
		stroke-dasharray:800;
		stroke-dashoffset:0;
		-webkit-animation:dash 5s linear forwards;
		-o-animation:dash 5s linear forwards;
		-moz-animation:dash 5s linear forwards;
		animation:dash 5s linear forwards;
	}

	@-webkit-keyframes dash {
		from{
		strokeoffset: 5000;
		}
		to{
		strokeoffset: 0;
		}
	}

	path{
		stroke:black;
		fill:pink;
		stroke-dasharray:5000;
		opacity:10;
		animation:animate 3s;
	}

	@-webkit-keyframes animate {
		0%{
		opacity:0;
		fill:none;
		stroke-dashoffset:5000;
		}
		30%{
		opacity:10;
		fill:none;
		stroke-dashoffset:5000;
		}
		90%{
		fill:rgba(255,255,255,0);
		}
		100%{
		opacity:10;
		fill:black;
		stroke-dashoffset:0;
		}
	}

</style>
<g id="Layer_1" class="st0">
	<path class="st1" d="M441.198,299.117c-9.201,6.511-14.152,17.276-12.669,27.874c0.155,1.105,2.295,14.72,14.693,20.845
		c1.414,0.699,9.691,4.789,17.989,1.807c10.584-3.803,17.652-17.836,15.037-34"/>
	<path class="st2" d="M348.484,289.055c3.317,0.421,19.819,2.166,34.821-9.265c16.664-12.697,18.333-31.635,18.54-34.548"/>
	<line class="st3" x1="187.251" y1="417.671" x2="225.276" y2="578.75"/>
	<line class="st3" x1="177.689" y1="17.625" x2="317.249" y2="45.535"/>
	<line class="st3" x1="222.22" y1="263.757" x2="230.864" y2="270.799"/>
	<line class="st3" x1="354.46" y1="332.556" x2="304.18" y2="393.484"/>
	<line class="st3" x1="250.992" y1="320.311" x2="318.513" y2="294.215"/>
	<line class="st3" x1="401.787" y1="246.884" x2="420.256" y2="231.532"/>
	<line class="st3" x1="476.889" y1="316.509" x2="510.006" y2="405.621"/>
	<line class="st3" x1="581.304" y1="546.637" x2="543.623" y2="631.499"/>
	<line class="st3" x1="447.673" y1="527.843" x2="450.562" y2="559.699"/>
	<line class="st3" x1="376.556" y1="622.266" x2="240.878" y2="746.827"/>
	<line class="st3" x1="11.311" y1="101.18" x2="195.949" y2="54.787"/>
	<line class="st3" x1="91.641" y1="247.113" x2="145.325" y2="192.771"/>
	<line class="st3" x1="137.994" y1="342.831" x2="71.827" y2="374.877"/>
	<line class="st3" x1="350.273" y1="289.28" x2="393.115" y2="292.145"/>
	<line class="st3" x1="257.962" y1="116.832" x2="278.084" y2="120.223"/>
	<line class="st3" x1="259.093" y1="181.756" x2="279.429" y2="185.138"/>
	<line class="st3" x1="467.21" y1="243.889" x2="439.641" y2="300.316"/>
	<line class="st3" x1="369.824" y1="578.003" x2="361.104" y2="493.724"/>
	<line class="st3" x1="503.074" y1="533.878" x2="542.786" y2="597.313"/>
	<path class="st1" d="M92.997,246.572c-18.684,5.41-32.288,21.098-34.318,39.365c-3.22,28.973,28.669,46.89,34.302,49.874
		c19.701,10.436,39.111,7.807,46.282,6.463"/>
	<path class="st1" d="M72.411,373.05c0.071,1.816,2.287,41.554,35.785,59.301c3.08,1.632,28.085,14.356,55.212,3.067
		c12.537-5.217,20.475-13.461,24.539-18.404"/>
	<path class="st1" d="M222.709,579.583c8.329-7.656,19.874-10.026,29.651-6.135c0.801,0.319,11.544,4.801,15.337,16.359
		c3.798,11.575-0.281,25.7-11.247,32.718c-15.477,9.905-32.648-1.977-33.834-2.828c-5.308-3.805-8.305-8.49-9.88-11.482"/>
	<path class="st1" d="M226.621,675.24c-2.734,1.34-18.832,9.559-23.766,28.038c-1.005,3.763-4.706,17.625,3.471,29.64
		c7.466,10.97,21.991,16.221,36.85,13.619"/>
	<path class="st1" d="M302.762,394.318c15.312-17.856,19.212-40.433,10.098-55.299c-7.999-13.048-24.015-16.878-31.774-18.734
		c-6.084-1.455-18.415-4.225-31.851,1.325"/>
	<path class="st1" d="M353.523,330.834c0.841,15.011,12.825,27.114,27.62,28.11c16.987,1.144,27.79-14.681,31.303-25.091
		c3.598-10.662,3.414-27.007-7.365-35.97c-5.187-4.314-11.101-5.482-14.597-5.845"/>
	<path class="st2" d="M511.256,405.312c-17.783,4.295-30.631,19.212-31.879,36.433c-1.316,18.163,10.712,32.805,23.682,39.166
		c17.578,8.621,40.213,3.663,54.65-12.752"/>
	<path class="st2" d="M360.058,494.573c15.152-17.43,38.153-24.252,57.382-17.306c13.905,5.023,28.267,18.124,30.968,35.522
		c1.06,6.827,0.065,12.644-0.911,16.395"/>
	<path class="st2" d="M504.88,534.65c-1.031-0.64-17.163-10.268-34.611-1.822c-17.425,8.434-19.898,27.02-20.038,28.236"/>
	<path class="st2" d="M544.478,630.566c-8.635,5.999-19.111,6.85-25.866,2.332c-4.968-3.323-7.543-9.088-6.93-15.061
		c1.115-10.87,12.548-20.885,22.884-21.503c4.961-0.297,8.598,1.636,10.456,2.862"/>
	<path class="st2" d="M579.849,547.12c8.209-2.3,9.739-6.282,10.05-7.243c2.583-7.967-9.395-21.636-20.862-20.128
		c-6.485,0.853-10.58,6.265-11.876,8.146"/>
	<path class="st2" d="M368.15,578.283c28.181,12.363,45.804,33.482,43.991,53.026c-0.832,8.961-6.428,24.911-18.741,27.876
		c-5.914,1.424-12.863-0.272-17.354-4.643c-7.254-7.061-7.865-20.881,0.509-32.276"/>
	<line class="st3" x1="213.595" y1="609.043" x2="224.434" y2="676.294"/>
	<path class="st2" d="M176.266,18.087c16.046,10.845,24.543,22.752,28.875,30.114c5.5,9.345,6.07,14.394,6.015,17.673
		c-0.179,10.718-7.407,24.742-17.103,24.359c-7.981-0.315-17.765-10.397-15.274-21.292c1.847-8.08,9.832-13.932,18.892-13.245"/>
	<path class="st2" d="M317.249,45.535c-6.84,1.158-26.514,5.45-40.076,22.771c-4.039,5.158-17.281,22.069-10.93,38.255
		c2.762,7.038,8.213,11.353,11.841,13.662"/>
	<path class="st2" d="M258.956,114.758c-1.594,1.659-17.572,18.773-12.752,37.344c3.29,12.674,14.932,20.886,22.771,26.414
		c5.018,3.539,9.579,5.853,12.752,7.287"/>
	<path class="st2" d="M259.867,181.249c-11.242,25.22-9.501,36.968-4.554,42.809c5.213,6.155,14.892,6.822,15.484,12.752
		c0.449,4.493-4.676,8.433-9.108,11.841c-5.109,3.928-9.737,5.543-23.682,10.019c-6.66,2.138-12.507,3.974-17.306,5.465"/>
	<path class="st2" d="M228.899,269.599c11.172,8.873,35.323,25.248,68.312,26.414c8.804,0.311,16.773-0.513,23.682-1.822"/>
	<path class="st2" d="M467.21,243.889c-0.868,1.104-10.219,12.647-22.841,11.143c-6.36-0.758-10.797-4.5-13.263-6.58
		c-7.514-6.336-10.174-14.306-11.11-17.792"/>
	<line class="st3" x1="557.633" y1="526.818" x2="556.301" y2="469.715"/>
	<path class="st1" d="M9.9,98.621c3.107,13.389,13.666,51.683,45.883,78.121c9.059,7.434,31.907,26.183,62.904,23.776
		c11.721-0.91,21.143-4.577,27.382-7.642"/>
</g>
<g id="Layer_2">
	<path class="st4" d="M9.754,100.159c1.161,9.255,6.572,43.717,35.648,69.394c40.588,35.843,92.249,25.263,97.848,24.017
		c-17.494,17.79-34.988,35.581-52.482,53.371c-4.463,1.638-15.358,6.334-23.128,17.79c-9.262,13.658-10.083,31.026-4.448,44.476
		c9.85,23.511,36.91,29.041,47.145,31.133c11.129,2.275,20.614,1.691,26.686,0.89c-21.645,10.971-43.29,21.942-64.935,32.912
		c0.608,7.355,2.807,21.556,12.453,35.581c2.612,3.798,23.378,32.931,57.819,31.133c25.817-1.347,41.947-19.167,45.366-23.128
		c12.453,52.185,24.907,104.371,37.36,156.556c1.622-1.111,10.285-6.813,21.349-4.448c10.338,2.21,17.831,10.407,20.459,19.57
		c2.806,9.782,0.261,21.342-8.006,28.465c-9.561,8.237-21.608,6.087-24.907,5.337c-10.253-2.33-16.083-9.341-17.791-11.564
		c2.669,20.756,5.337,41.511,8.006,62.267c-4.232,2.565-15.106,9.943-20.459,24.017c-1.474,3.874-9.574,25.17,3.558,39.139
		c8.019,8.53,21.137,11.329,33.802,8.006c44.476-40.918,88.952-81.836,133.429-122.754c-5.284,7.433-6.396,16.723-2.669,24.017
		c5.629,11.015,20.459,13.887,29.354,9.785c13.602-6.273,13.564-28.965,9.785-41.808c-4.883-16.593-18.528-25.287-22.238-27.575
		c-7.277-4.489-14.202-6.304-18.68-7.116c-3.262-30.244-6.523-60.488-9.785-90.731c5.359-4.084,15.362-10.585,29.354-13.343
		c9.659-1.904,28.13-5.545,42.697,6.227c14.805,11.964,15.12,31.4,15.122,33.802c0.005,6.442-1.432,11.686-2.669,15.122
		c1.779,10.081,3.558,20.163,5.337,30.244c0.455-3.043,3.893-24.236,17.791-29.354c6.134-2.259,13.879-1.229,23.128,0
		c5.615,0.746,10.201,1.823,13.343,2.669c13.046,20.459,26.093,40.918,39.139,61.377c-1.775-0.373-12.44-2.437-21.349,4.448
		c-6.4,4.946-12.652,15.096-8.895,23.128c4.444,9.5,19.593,8.979,21.349,8.895c4.638-0.22,8.331-1.579,10.674-2.669
		c12.157-28.465,24.314-56.93,36.47-85.394c1.575-0.708,5.776-2.853,7.116-7.116c2.102-6.686-4.177-14.312-10.674-16.901
		c-6.957-2.772-15.563-0.326-21.349,6.227c-0.297-19.57-0.593-39.139-0.889-58.709c-1.801,2.313-12.099,15.076-30.244,16.901
		c-14.004,1.408-28.588-4.111-37.36-15.122c-15.11-18.967-9.969-50.455,7.116-61.377c6.363-4.068,13.286-4.582,17.791-4.448
		c-11.86-29.354-23.721-58.709-35.581-88.063c0.341,1.407,3.519,15.559-6.227,26.686c-6.598,7.533-18.218,12.65-28.465,8.895
		c-13.784-5.051-18.188-23.63-14.232-36.47c2.411-7.826,7.691-12.756,10.674-15.122c8.895-19.57,17.79-39.139,26.686-58.709
		c-4.03,8.339-12.626,13.31-21.349,12.453c-12.511-1.228-17.579-13.687-17.79-14.232c-2.235-5.774-1.411-11.008-0.89-13.343
		c-8.006,5.93-16.011,11.86-24.017,17.79c-0.06,3.129-0.642,12.071-7.116,20.459c-6.927,8.975-16.153,11.553-19.57,12.453
		c-11.804,3.111-21.564-0.399-24.907-1.779c12.75,6.227,25.5,12.453,38.25,18.68c2.095,0.261,15.383,2.129,22.238,13.343
		c7.773,12.717,1.889,28.645-6.227,37.36c-9.409,10.105-27.42,16.532-39.139,8.006c-8.279-6.024-9.535-16.687-9.785-19.57
		c-15.715,18.977-31.43,37.953-47.145,56.93c1.482-2.039,13.491-19.143,7.116-39.139c-4.45-13.96-15.184-20.931-18.68-23.128
		c-21.13-13.275-45.126-3.863-48.034-2.669c18.68-10.971,37.36-21.942,56.04-32.912c-8.023,2.057-19.16,3.672-32.023,1.779
		c-9.101-1.339-20.807-3.062-30.244-12.453c-4.133-4.113-6.574-8.447-8.006-11.564c-3.907-1.758-7.813-3.516-11.72-5.274
		c5.959-0.507,15.71-2.076,26.174-7.618c5.912-3.131,20.167-10.68,19.533-19.143c-0.513-6.837-10.239-7.51-15.301-15.997
		c-3.787-6.35-5.103-17.308,5.216-37.557c7.651,1.043,15.301,2.087,22.952,3.13c-5.117-2.244-16.469-8.103-24.343-20.865
		c-2.18-3.532-11.905-19.295-6.607-37.21c1.73-5.851,4.544-10.178,6.607-12.867c6.491,1.391,12.983,2.782,19.474,4.173
		c-9.331-9.306-11.044-18.421-11.476-21.908c-3.05-24.646,24.08-41.565,26.082-42.774c8.91-5.379,17.494-7.046,22.604-7.651
		c-44.976-9.853-89.952-19.706-134.928-29.559c4.645,3.272,11.312,8.726,17.388,17.04c5.897,8.069,13.582,18.585,11.824,31.298
		c-1.574,11.378-10.645,24.027-18.431,22.952c-7.084-0.979-12.878-13.286-11.128-23.647c1.099-6.507,4.943-10.886,6.955-12.867
		C128.482,68.253,67.017,84.742,9.754,100.159"/>
</g>
</svg>
